Land_normalized_precision_landing02_filtered_grf
version=1
nRows=15
nColumns=37
inDegrees=yes
endheader
time		1_ground_force_vx		1_ground_force_vy		1_ground_force_vz		1_ground_force_px		1_ground_force_py		1_ground_force_pz		1_ground_torque_x		1_ground_torque_y		1_ground_torque_z		2_ground_force_vx		2_ground_force_vy		2_ground_force_vz		2_ground_force_px		2_ground_force_py		2_ground_force_pz		2_ground_torque_x		2_ground_torque_y		2_ground_torque_z		3_ground_force_vx		3_ground_force_vy		3_ground_force_vz		3_ground_force_px		3_ground_force_py		3_ground_force_pz		3_ground_torque_x		3_ground_torque_y		3_ground_torque_z		4_ground_force_vx		4_ground_force_vy		4_ground_force_vz		4_ground_force_px		4_ground_force_py		4_ground_force_pz		4_ground_torque_x		4_ground_torque_y		4_ground_torque_z		
1.184500		-29.176618		802.250968		105.275596		0.071759		0.000000		0.243724		-0.582477		16.015991		2.101703		65.853548		710.766986		80.965941		-0.131261		0.000000		0.228736		2.261284		24.406364		2.780214		9.382312		-1.819009		-4.523141		0.381092		1.275544		1.884177		-0.009159		0.001776		0.004415		-5.126032		-0.479398		-0.072708		-0.351413		1.268301		1.872523		0.016375		0.001531		0.000232		
1.187227		-30.450404		796.939887		99.497432		0.072921		0.000000		0.244582		-0.609353		15.947801		1.991072		65.191008		697.098260		75.250045		-0.131047		0.000000		0.229026		2.179384		23.304547		2.515702		9.347840		-1.855448		-4.504573		0.381086		1.275568		1.884210		-0.008771		0.001741		0.004227		-5.159448		-0.463511		-0.196840		-0.351444		1.268309		1.872555		0.016575		0.001489		0.000633		
1.189955		-32.007023		788.911170		94.236777		0.074086		0.000000		0.245338		-0.640120		15.777742		1.884678		64.099755		683.918396		69.767987		-0.130751		0.000000		0.229276		2.078910		22.181123		2.262756		9.326266		-1.864945		-4.497150		0.381085		1.275591		1.884247		-0.008459		0.001692		0.004080		-5.188393		-0.464603		-0.313390		-0.351474		1.268321		1.872587		0.017194		0.001539		0.001038		
1.192682		-33.906619		778.611033		89.364303		0.075297		0.000000		0.246042		-0.675018		15.500760		1.779088		62.830852		671.728521		64.515654		-0.130459		0.000000		0.229560		1.970264		21.064198		2.023128		9.325523		-1.854007		-4.507083		0.381088		1.275608		1.884288		-0.008457		0.001681		0.004087		-5.202347		-0.488670		-0.417329		-0.351506		1.268336		1.872623		0.018100		0.001700		0.001452		
1.195409		-36.193141		766.853768		84.719291		0.076607		0.000000		0.246787		-0.714164		15.131653		1.671695		61.649628		660.785928		59.605636		-0.130268		0.000000		0.229937		1.866595		20.006923		1.804728		9.348012		-1.834435		-4.534657		0.381095		1.275618		1.884329		-0.008797		0.001726		0.004267		-5.200081		-0.538226		-0.508121		-0.351540		1.268355		1.872662		0.019196		0.001987		0.001876		
1.198136		-38.889433		754.659739		80.150570		0.078069		0.000000		0.247664		-0.757246		14.694712		1.560696		60.678330		651.042834		55.197743		-0.130245		0.000000		0.230425		1.775863		19.053967		1.615485		9.393429		-1.816863		-4.576455		0.381101		1.275619		1.884368		-0.009306		0.001800		0.004534		-5.186655		-0.611420		-0.587567		-0.351575		1.268375		1.872705		0.020370		0.002401		0.002308		
1.200864		-41.973890		743.137148		75.528718		0.079703		0.000000		0.248725		-0.802967		14.216501		1.444902		59.835145		642.106443		51.397981		-0.130391		0.000000		0.230994		1.697389		18.215117		1.458061		9.461484		-1.808979		-4.627783		0.381107		1.275613		1.884404		-0.009686		0.001852		0.004737		-5.168187		-0.700170		-0.657394		-0.351611		1.268395		1.872750		0.021412		0.002901		0.002723		
1.203591		-45.375457		733.288836		70.751580		0.081486		0.000000		0.249968		-0.849214		13.723841		1.324158		58.888870		633.351449		48.212239		-0.130646		0.000000		0.231578		1.623752		17.463493		1.329371		9.552762		-1.816651		-4.684856		0.381108		1.275601		1.884437		-0.009635		0.001832		0.004725		-5.148177		-0.790057		-0.716795		-0.351645		1.268412		1.872791		0.022056		0.003385		0.003071		
1.206318		-48.979348		725.853704		65.749808		0.083360		0.000000		0.251341		-0.893581		13.242734		1.199580		57.585956		624.104163		45.557474		-0.130922		0.000000		0.232104		1.545900		16.754084		1.223001		9.666067		-1.845020		-4.745272		0.381104		1.275588		1.884467		-0.008938		0.001706		0.004388		-5.127935		-0.862305		-0.762487		-0.351673		1.268423		1.872824		0.022105		0.003717		0.003287		
1.209045		-52.646965		721.155670		60.501926		0.085251		0.000000		0.252779		-0.934275		12.797725		1.073683		55.791199		613.871655		43.312176		-0.131138		0.000000		0.232518		1.458780		16.050961		1.132490		9.793885		-1.896217		-4.806276		0.381094		1.275577		1.884495		-0.007560		0.001464		0.003711		-5.108652		-0.898880		-0.791702		-0.351693		1.268426		1.872847		0.021552		0.003792		0.003340		
1.211773		-56.244167		719.122817		55.048716		0.087087		0.000000		0.254225		-0.970300		12.406176		0.949712		53.555200		602.487952		41.387850		-0.131261		0.000000		0.232804		1.364321		15.348328		1.054357		9.920167		-1.965433		-4.862519		0.381079		1.275570		1.884524		-0.005672		0.001123		0.002781		-5.092140		-0.887394		-0.804478		-0.351703		1.268421		1.872861		0.020567		0.003584		0.003249		
1.214500		-59.658194		719.247685		49.508256		0.088802		0.000000		0.255630		-1.001402		12.073047		0.831029		51.118012		590.206814		39.746809		-0.131313		0.000000		0.232986		1.270907		14.673844		0.988193		10.022888		-2.037604		-4.906473		0.381063		1.275570		1.884553		-0.003597		0.000731		0.001761		-5.078886		-0.827390		-0.803980		-0.351703		1.268408		1.872869		0.019381		0.003157		0.003068		
1.217227		-62.786805		720.809970		44.057917		0.090337		0.000000		0.256949		-1.027448		11.795492		0.720992		48.812685		577.600774		38.410116		-0.131352		0.000000		0.233114		1.189679		14.077440		0.936143		10.080010		-2.089550		-4.931312		0.381046		1.275574		1.884586		-0.001714		0.000355		0.000839		-5.065368		-0.729925		-0.793608		-0.351694		1.268390		1.872875		0.018134		0.002614		0.002841		
1.219955		-65.542938		722.945654		38.912152		0.091662		0.000000		0.258142		-1.048698		11.567277		0.622607		46.943864		565.434722		37.412756		-0.131452		0.000000		0.233247		1.129668		13.606741		0.900309		10.080817		-2.097537		-4.936583		0.381030		1.275582		1.884621		-0.000366		0.000077		0.000180		-5.042952		-0.617595		-0.776574		-0.351681		1.268369		1.872886		0.016790		0.002056		0.002586		
1.222682		-67.832527		724.865089		34.316679		0.092769		0.000000		0.259177		-1.065757		11.388825		0.539180		45.701782		554.469420		36.799408		-0.131667		0.000000		0.233424		1.095825		13.294913		0.882366		10.030526		-2.045047		-4.930029		0.381017		1.275592		1.884660		0.000192		-0.000039		-0.000094		-5.000080		-0.517452		-0.756482		-0.351668		1.268351		1.872905		0.024012		-0.042560		-0.026026		
